<svg width="16" height="16" viewBox="0 0 16 16" fill="none" xmlns="http://www.w3.org/2000/svg">
<path d="M15.3217 2.77396C13.9661 2.50285 13.3812 1.84921 13.1101 0.527555C13.0905 0.455657 13.0276 0.401733 12.9495 0.401733C12.8708 0.401733 12.8076 0.456464 12.7885 0.529168C12.7856 0.531402 12.791 0.524122 12.7885 0.529168C12.5174 1.88472 11.8989 2.50285 10.5772 2.77396C10.4837 2.77396 10.4078 2.84983 10.4078 2.9434C10.4078 3.03698 10.4837 3.11284 10.5772 3.11284C11.9328 3.38395 12.5149 4.02367 12.786 5.34535C12.8005 5.42419 12.8664 5.48507 12.9495 5.48507C13.0294 5.48507 13.0934 5.42845 13.1112 5.35393C13.1096 5.35714 13.1132 5.35145 13.1112 5.35393C13.3823 3.99837 14 3.38395 15.3217 3.11284C15.4153 3.11284 15.4911 3.03698 15.4911 2.9434C15.4911 2.84983 15.4153 2.77396 15.3217 2.77396Z" fill="#0E1318"/>
<path fill-rule="evenodd" clip-rule="evenodd" d="M9.3125 2.00002H4.66667C3.19391 2.00002 2 3.19393 2 4.66669V11.3334C2 12.8061 3.19391 14 4.66667 14H11.3333C12.8061 14 14 12.8061 14 11.3334C14 11.3334 14 9.77329 14 8.77367C14 7.95898 14 6.68752 14 6.68752H13V7.48618L12.4311 6.91731C12.108 6.59416 11.8366 6.32273 11.5933 6.12801C11.3373 5.92321 11.0663 5.76419 10.7351 5.71706C10.5716 5.69379 10.4055 5.69379 10.242 5.71706C9.91083 5.76419 9.63978 5.92321 9.38384 6.12801C9.14051 6.32273 8.86911 6.59415 8.54597 6.91731L3.25058 12.2127C3.09175 11.9574 3 11.6561 3 11.3334V4.66669C3 3.74621 3.74619 3.00002 4.66667 3.00002H9.3125V2.00002ZM4.01128 12.8662C4.21244 12.9523 4.43399 13 4.66667 13H11.3333C12.2538 13 13 12.2538 13 11.3334V8.9004L11.7437 7.64406C11.3957 7.29609 11.1633 7.06473 10.9685 6.9088C10.7813 6.75903 10.676 6.71872 10.5942 6.70709C10.5241 6.69711 10.453 6.69711 10.3829 6.70709C10.3011 6.71872 10.1958 6.75903 10.0086 6.9088C9.81378 7.06473 9.58141 7.29609 9.23343 7.64406L4.01128 12.8662Z" fill="#0E1318"/>
<path d="M7 5.83335C7 6.47769 6.47767 7.00002 5.83333 7.00002C5.189 7.00002 4.66667 6.47769 4.66667 5.83335C4.66667 5.18902 5.189 4.66669 5.83333 4.66669C6.47767 4.66669 7 5.18902 7 5.83335Z" fill="#0E1318"/>
</svg>
