<svg width="16" height="16" viewBox="0 0 16 16" fill="none" xmlns="http://www.w3.org/2000/svg">
<path fill-rule="evenodd" clip-rule="evenodd" d="M12.2217 8.7628C12.3075 8.73768 12.3951 8.71359 12.4845 8.6905C12.5998 8.66071 12.7181 8.63258 12.8396 8.60601C12.8855 8.59595 12.932 8.58612 12.9788 8.57651C13.1629 8.57651 13.3121 8.42726 13.3121 8.24318C13.3121 8.0591 13.1629 7.90984 12.9788 7.90984C12.9307 7.90023 12.8831 7.89036 12.836 7.88025C12.7151 7.85431 12.5975 7.82675 12.483 7.79749C12.3936 7.77466 12.3062 7.75079 12.2205 7.72588C10.3536 7.18256 9.3704 6.13785 8.83243 4.31765C8.81296 4.25176 8.79407 4.18486 8.77574 4.11692C8.77163 4.1017 8.76755 4.08642 8.7635 4.07109L8.70786 3.85006C8.69365 3.79072 8.67981 3.73065 8.66634 3.66983C8.66312 3.6553 8.65992 3.64073 8.65674 3.62612C8.64702 3.58138 8.63749 3.53624 8.62814 3.4907C8.58957 3.34926 8.46579 3.24318 8.31214 3.24318C8.15736 3.24318 8.03301 3.35084 7.99549 3.49387C7.9866 3.53834 7.97752 3.5824 7.96824 3.62606C7.96487 3.64191 7.96148 3.6577 7.95806 3.67344C7.9283 3.81052 7.8966 3.94362 7.86285 4.07285C7.841 4.15652 7.81829 4.23857 7.7947 4.31902C7.78074 4.36664 7.76647 4.4137 7.75188 4.4602C7.75141 4.46169 7.75095 4.46317 7.75048 4.46465C7.19561 6.22988 6.18503 7.20057 4.40287 7.72329C4.31697 7.74848 4.22927 7.77264 4.13975 7.79579C4.02446 7.82561 3.90614 7.85376 3.78471 7.88034C3.73874 7.8904 3.69234 7.90023 3.64548 7.90984C3.46139 7.90984 3.31214 8.0591 3.31214 8.24318C3.31214 8.42726 3.46139 8.57651 3.64548 8.57651C3.69357 8.58613 3.74118 8.59599 3.78829 8.60608C3.90923 8.63199 4.02694 8.65948 4.14151 8.68861C4.23122 8.71142 4.31901 8.73524 4.40491 8.76009C6.27748 9.30171 7.25715 10.3348 7.79277 12.1636C7.81191 12.2289 7.83048 12.2953 7.84851 12.3627C7.85306 12.3797 7.85757 12.3968 7.86205 12.4139C7.87416 12.403 7.90176 12.6352 7.91475 12.6251C7.9304 12.6909 7.9456 12.7577 7.96036 12.8253C7.96233 12.8343 7.96428 12.8434 7.96623 12.8524C7.9745 12.8907 7.98262 12.9294 7.99061 12.9683C8.01913 13.1234 8.14877 13.2432 8.31214 13.2432C8.46949 13.2432 8.59527 13.1318 8.63026 12.9852C8.63967 12.9381 8.64929 12.8915 8.65914 12.8454C8.66019 12.8404 8.66125 12.8355 8.66231 12.8305C8.69311 12.687 8.72602 12.5479 8.76115 12.413C8.78325 12.3281 8.80624 12.2448 8.83013 12.1633C8.84452 12.1141 8.85925 12.0656 8.8743 12.0176L8.8754 12.0141C9.43008 10.2505 10.4398 9.28441 12.2217 8.7628ZM8.31239 10.719C8.57527 10.1768 8.90479 9.69539 9.31903 9.27715C9.74306 8.84903 10.2317 8.51158 10.781 8.24439C10.212 7.96657 9.71266 7.61432 9.28364 7.16941C8.8845 6.7555 8.5678 6.28363 8.31421 5.75908C8.05114 6.30256 7.72133 6.78535 7.30671 7.20483C6.88313 7.63338 6.39508 7.97154 5.84631 8.23941C6.41146 8.51358 6.90808 8.86093 7.33523 9.30053C7.73869 9.71574 8.05768 10.1902 8.31239 10.719ZM11.1743 3.76493C11.1254 3.76493 11.0845 3.79942 11.0747 3.84538C11.0733 3.85226 11.0725 3.85939 11.0725 3.8667H11.0747C11.0747 3.92293 11.1161 3.96012 11.1714 3.9707L11.187 3.97447C11.1943 3.97618 11.2016 3.97792 11.2083 3.97966C11.21 3.98012 11.2118 3.98059 11.2136 3.98106C11.5017 4.0567 11.7477 4.17034 11.9498 4.32024C11.9975 4.35565 12.0428 4.39308 12.0856 4.43251C12.104 4.44942 12.1219 4.46669 12.1393 4.48433L12.1407 4.48569C12.1778 4.52328 12.2128 4.56253 12.2457 4.60341C12.4011 4.79631 12.5102 5.02571 12.5711 5.28982C12.5744 5.30437 12.5777 5.31921 12.5807 5.33397C12.5816 5.33829 12.5825 5.34261 12.5834 5.34694C12.5859 5.35948 12.5883 5.37208 12.5906 5.38477C12.5906 5.43368 12.6251 5.47453 12.6711 5.48433C12.6779 5.4858 12.6851 5.48657 12.6924 5.48657V5.48433C12.7486 5.48433 12.7858 5.44299 12.7964 5.3877L12.8001 5.37208C12.8019 5.36483 12.8036 5.35751 12.8053 5.35083C12.8058 5.34904 12.8063 5.34725 12.8067 5.34546C12.8824 5.05734 12.996 4.81139 13.1459 4.6093C13.1813 4.56157 13.2188 4.51628 13.2582 4.47347C13.2755 4.45464 13.2933 4.43629 13.3114 4.41842C13.349 4.38133 13.3882 4.34631 13.4291 4.31336C13.622 4.15796 13.8514 4.04891 14.1155 3.98801C14.13 3.98466 14.1449 3.98141 14.1597 3.97835C14.164 3.97745 14.1683 3.97657 14.1726 3.9757C14.1852 3.97318 14.1978 3.97077 14.2104 3.96847C14.2667 3.96847 14.31 3.92289 14.31 3.8667C14.31 3.81047 14.2687 3.77327 14.2134 3.7627L14.1978 3.75893C14.1905 3.75722 14.1832 3.75548 14.1765 3.75374C14.1747 3.75328 14.1729 3.75281 14.1711 3.75234C13.8828 3.67665 13.6367 3.5629 13.4346 3.41285C13.387 3.37753 13.3418 3.34021 13.2991 3.30089C13.2808 3.28398 13.2629 3.2667 13.2454 3.24906L13.2441 3.2477C13.207 3.21012 13.172 3.17087 13.139 3.12999C12.9836 2.93709 12.8746 2.70768 12.8137 2.44358C12.8103 2.42903 12.8071 2.41419 12.804 2.39943C12.8031 2.39511 12.8022 2.39079 12.8014 2.38645C12.7989 2.37392 12.7965 2.36131 12.7941 2.34863C12.7941 2.29972 12.7597 2.25887 12.7137 2.24906C12.7068 2.2476 12.6997 2.24683 12.6924 2.24683V2.24906C12.6361 2.24906 12.599 2.29041 12.5884 2.3457L12.5846 2.36132C12.5829 2.36857 12.5812 2.37589 12.5794 2.38257C12.579 2.38436 12.5785 2.38615 12.578 2.38793C12.5024 2.67606 12.3887 2.92201 12.2388 3.1241C12.2034 3.17183 12.166 3.21712 12.1266 3.25993C12.1097 3.27829 12.0924 3.2962 12.0747 3.31364L12.0734 3.31498C12.0358 3.35207 11.9966 3.38709 11.9557 3.42003C11.7628 3.57544 11.5334 3.68449 11.2693 3.74539C11.2547 3.74874 11.2399 3.75199 11.2251 3.75505C11.2208 3.75595 11.2165 3.75683 11.2121 3.7577C11.1996 3.76022 11.187 3.76263 11.1743 3.76493ZM4.56522 13.1072C4.5672 13.1054 4.56919 13.1036 4.57118 13.1018C4.73201 12.9555 4.93197 12.8516 5.18536 12.7885C5.21574 12.781 5.24688 12.774 5.27882 12.7676C5.35906 12.7676 5.42412 12.7025 5.42412 12.6223C5.42412 12.542 5.35906 12.477 5.27882 12.477C5.25789 12.4707 5.23723 12.4643 5.21685 12.4578C4.95997 12.3755 4.74659 12.2732 4.57525 12.1369C4.56727 12.1305 4.55938 12.1241 4.55158 12.1176C4.50841 12.0816 4.46804 12.0434 4.43042 12.0026C4.4286 12.0006 4.42678 11.9986 4.42497 11.9966C4.27867 11.8358 4.17476 11.6358 4.11171 11.3824C4.10415 11.352 4.09718 11.3209 4.09079 11.289C4.09079 11.2087 4.02573 11.1437 3.94548 11.1437C3.86524 11.1437 3.80018 11.2087 3.80018 11.289C3.7939 11.3099 3.7875 11.3305 3.78098 11.3509C3.69874 11.6078 3.59639 11.8212 3.46006 11.9925C3.45372 12.0005 3.4473 12.0084 3.4408 12.0162C3.40483 12.0594 3.36656 12.0997 3.32575 12.1373C3.32377 12.1392 3.32178 12.141 3.31979 12.1428C3.15896 12.2891 2.959 12.393 2.70561 12.4561C2.67523 12.4636 2.64409 12.4706 2.61215 12.477C2.53191 12.477 2.46685 12.542 2.46685 12.6223C2.46685 12.7025 2.53191 12.7676 2.61215 12.7676C2.63308 12.7739 2.65374 12.7803 2.67412 12.7868C2.931 12.869 3.14438 12.9714 3.31572 13.1077C3.3237 13.1141 3.33159 13.1205 3.33939 13.127C3.38256 13.1629 3.42293 13.2012 3.46055 13.242C3.46237 13.244 3.46419 13.246 3.466 13.248C3.61229 13.4088 3.71621 13.6088 3.77926 13.8622C3.78682 13.8925 3.79379 13.9237 3.80018 13.9556C3.80018 14.0359 3.86524 14.1009 3.94548 14.1009C4.02573 14.1009 4.09079 14.0359 4.09079 13.9556C4.09707 13.9347 4.10347 13.914 4.10999 13.8937C4.19223 13.6368 4.29458 13.4234 4.43091 13.2521C4.43725 13.2441 4.44367 13.2362 4.45017 13.2284C4.48614 13.1852 4.52441 13.1448 4.56522 13.1072Z" fill="#0E1318"/>
<path d="M6.3997 3.74198C5.2725 3.64396 4.65238 3.24959 4.3221 2.46672C4.20308 2.18465 4.11934 1.85518 4.06637 1.46672C4.06637 1.40002 3.99972 1.33337 3.93302 1.33337C3.86633 1.33337 3.79968 1.40002 3.79968 1.46672C3.7467 1.85518 3.66296 2.18465 3.54395 2.46672C3.21366 3.24959 2.59355 3.64396 1.46635 3.74198C1.3997 3.74198 1.33301 3.80863 1.33301 3.87533C1.33301 3.94198 1.3997 4.00867 1.46635 4.00867C2.86633 4.27531 3.59969 4.80005 3.79972 6.26672C3.79972 6.33337 3.86637 6.40002 3.93302 6.40002C3.99967 6.40002 4.06632 6.33337 4.06632 6.26672C4.26636 4.80005 4.99972 4.27531 6.3997 4.00867C6.46635 4.00867 6.53304 3.94198 6.53304 3.87533C6.53304 3.80863 6.46635 3.74198 6.3997 3.74198Z" fill="#0E1318"/>
</svg>
