<svg width="16" height="16" viewBox="0 0 16 16" fill="none" xmlns="http://www.w3.org/2000/svg">
<path fill-rule="evenodd" clip-rule="evenodd" d="M14.5 6.75C14.5 8.85669 14.5 9.91004 13.9944 10.6667C13.7755 10.9943 13.4943 11.2755 13.1667 11.4944C12.4909 11.946 11.5785 11.9942 9.89036 11.9994L8.86287 13.7535C8.4766 14.4129 7.5234 14.4129 7.13713 13.7535L6.10964 11.9994C4.42152 11.9942 3.50908 11.946 2.83329 11.4944C2.50572 11.2755 2.22447 10.9943 2.00559 10.6667C1.5 9.91004 1.5 8.85669 1.5 6.75C1.5 4.64331 1.5 3.58996 2.00559 2.83329C2.22447 2.50572 2.50572 2.22447 2.83329 2.00559C3.58996 1.5 4.64331 1.5 6.75 1.5H9.25C11.3567 1.5 12.41 1.5 13.1667 2.00559C13.4943 2.22447 13.7755 2.50572 13.9944 2.83329C14.5 3.58996 14.5 4.64331 14.5 6.75ZM10.8512 7.10345C10.9546 6.94828 11.0408 6.77586 11.0925 6.60345C11.127 6.46552 11.1615 6.31034 11.1443 6.15517C11.1443 5.24138 10.4029 4.5 9.48909 4.5C8.83392 4.5 8.26496 4.89655 8.00634 5.44828H7.9891C7.73048 4.89655 7.16151 4.5 6.50634 4.5C6.05806 4.5 5.66151 4.67241 5.36841 4.96552C5.12703 5.2069 4.95461 5.51724 4.88565 5.87931C4.86841 5.96551 4.85117 6.05173 4.85117 6.15517C4.85117 6.31034 4.88565 6.46552 4.93737 6.62069C4.9891 6.81034 5.0753 6.98276 5.19599 7.13793L5.21323 7.15517V7.17241C5.24772 7.22414 5.29944 7.2931 5.36841 7.37931C5.67875 7.7931 6.35116 8.53448 7.66151 9.5H8.36841C10.0581 8.25862 10.696 7.37931 10.8512 7.10345Z" fill="#FF3B4B"/>
</svg>
