<svg width="16" height="16" viewBox="0 0 16 16" fill="none" xmlns="http://www.w3.org/2000/svg">
<path fill-rule="evenodd" clip-rule="evenodd" d="M10.0078 1.50018V1.50781L10.3007 1.51107C10.5636 1.51399 10.8147 1.6203 10.9998 1.80701L12.2036 3.02142C12.3839 3.2033 12.4875 3.44741 12.4931 3.70345L12.4999 4.00896C12.5 4.09422 12.5 4.18284 12.5 4.275V5.17155C13.4273 5.4992 14.1407 6.26403 14.3978 7.22354C14.5 7.60504 14.5 8.07003 14.5 9C14.5 9.92997 14.5 10.395 14.3978 10.7765C14.1391 11.7417 13.4187 12.5099 12.4834 12.8343C12.4553 13.3412 12.3801 13.6723 12.178 13.9286C12.105 14.0213 12.0213 14.105 11.9286 14.178C11.5202 14.5 10.9218 14.5 9.725 14.5L6.275 14.5C5.07823 14.5 4.47985 14.5 4.07136 14.178C3.97873 14.105 3.89504 14.0213 3.82202 13.9286C3.61994 13.6723 3.54467 13.3412 3.51664 12.8343C2.58129 12.5099 1.86086 11.7417 1.60222 10.7765C1.5 10.395 1.5 9.92997 1.5 9C1.5 8.07003 1.5 7.60504 1.60222 7.22354C1.85932 6.26403 2.57275 5.4992 3.5 5.17154V4.275C3.5 3.07823 3.5 2.47985 3.82203 2.07136C3.89505 1.97873 3.97874 1.89504 4.07136 1.82202C4.47985 1.5 5.07823 1.5 6.275 1.5H9.725C9.82323 1.5 9.91743 1.5 10.0078 1.50018ZM6.275 13.75L9.725 13.75C10.3412 13.75 10.7393 13.7488 11.0368 13.7147C11.3186 13.6823 11.4138 13.6288 11.4643 13.589C11.5106 13.5525 11.5525 13.5106 11.589 13.4643C11.6288 13.4138 11.6823 13.3186 11.7147 13.0368C11.7488 12.7393 11.75 11.6474 11.75 11.0312L4.25 11.0312C4.25 11.6474 4.25116 12.7393 4.28535 13.0368C4.31774 13.3186 4.37122 13.4138 4.41101 13.4643C4.44752 13.5106 4.48937 13.5525 4.53568 13.589C4.58615 13.6288 4.68139 13.6823 4.9632 13.7147C5.26069 13.7488 5.6588 13.75 6.275 13.75ZM4.5 7C3.94772 7 3.5 7.44772 3.5 8C3.5 8.55228 3.94772 9 4.5 9C5.05228 9 5.5 8.55228 5.5 8C5.5 7.44772 5.05228 7 4.5 7ZM4.25 5.02178C4.55498 5 4.94454 5 5.49998 5L10.5 5C11.0554 5 11.445 5 11.75 5.02178V4.275C11.75 4.17809 11.75 4.08658 11.7498 4H10.5C10.2239 4 10 3.77614 10 3.5V2.25021C9.91342 2.25003 9.82191 2.25 9.725 2.25H6.275C5.6588 2.25 5.26069 2.25116 4.9632 2.28535C4.68139 2.31774 4.58615 2.37122 4.53568 2.41101C4.48937 2.44752 4.44752 2.48937 4.41101 2.53568C4.37122 2.58615 4.31774 2.68139 4.28535 2.9632C4.25116 3.26069 4.25 3.6588 4.25 4.275L4.25 5.02178Z" fill="#992BFF"/>
</svg>
