<svg width="24" height="24" viewBox="0 0 24 24" fill="none" xmlns="http://www.w3.org/2000/svg">
<path d="M7.17428 9.75C8.23702 9.75 9.09855 10.6115 9.09855 11.6743C9.09855 12.737 8.23702 13.5986 7.17428 13.5986C6.11153 13.5986 5.25 12.737 5.25 11.6743C5.25 10.6115 6.11153 9.75 7.17428 9.75Z" fill="#8B3DFF"/>
<path d="M11.985 9.75C13.0477 9.75 13.9092 10.6115 13.9092 11.6743C13.9092 12.737 13.0477 13.5986 11.985 13.5986C10.9222 13.5986 10.0607 12.737 10.0607 11.6743C10.0607 10.6115 10.9222 9.75 11.985 9.75Z" fill="#8B3DFF"/>
<path d="M18.75 11.6743C18.75 10.6115 17.8885 9.75 16.8257 9.75C15.763 9.75 14.9014 10.6115 14.9014 11.6743C14.9014 12.737 15.763 13.5986 16.8257 13.5986C17.8885 13.5986 18.75 12.737 18.75 11.6743Z" fill="#8B3DFF"/>
</svg>
